<?xml version="1.0" standalone="no"?>
<!DOCTYPE svg PUBLIC "-//W3C//DTD SVG 1.1//EN" "http://www.w3.org/Graphics/SVG/1.1/DTD/svg11.dtd" >
<svg>
<metadata>
Created by FontForge 20120731 at Thu Sep 15 22:25:33 2016
 By ,,,
Copyright (c) 2016, Joel Arvidsson
</metadata>
<defs>
<font id="EvilIcons" horiz-adv-x="512" >
  <font-face 
    font-family="EvilIcons"
    font-weight="400"
    font-stretch="normal"
    units-per-em="512"
    panose-1="2 0 5 3 0 0 0 0 0 0"
    ascent="448"
    descent="-64"
    bbox="17 -3 492 395"
    underline-thickness="25"
    underline-position="-52"
    unicode-range="U+0020-F145"
  />
<missing-glyph horiz-adv-x="187" 
d="M17 0v341h136v-341h-136zM34 17h102v307h-102v-307z" />
    <glyph glyph-name=".notdef" horiz-adv-x="187" 
d="M17 0v341h136v-341h-136zM34 17h102v307h-102v-307z" />
    <glyph glyph-name=".null" horiz-adv-x="0" 
 />
    <glyph glyph-name="nonmarkingreturn" horiz-adv-x="170" 
 />
    <glyph glyph-name="space" unicode=" " horiz-adv-x="200" 
 />
    <glyph glyph-name="uniF100" unicode="&#xf100;" 
d="M430 243h-20v51q0 11 -11 11h-286q-11 0 -11 -11v-51h-20v51q0 13 9 22t22 9h286q13 0 22 -9t9 -22v-51zM379 38h-246q-13 0 -22 9t-9 22v174h21v-174q0 -10 10 -10h246q10 0 10 10v174h21v-174q0 -13 -9 -22t-22 -9zM297 182h-82q-10 0 -10 10t10 10h82q10 0 10 -10
t-10 -10zM82 264h348v-21h-348v21z" />
    <glyph glyph-name="uniF101" unicode="&#xf101;" 
d="M256 18q-72 0 -123 51t-51 123t51 123t123 51t123 -51t51 -123t-51 -123t-123 -51zM256 346q-64 0 -109 -45t-45 -109t45 -109t109 -45t109 45t45 109t-45 109t-109 45zM256 96l-99 99l14 14l85 -85l85 85l14 -14zM246 284h20v-174h-20v174z" />
    <glyph glyph-name="uniF102" unicode="&#xf102;" 
d="M256 18q-72 0 -123 51t-51 123t51 123t123 51t123 -51t51 -123t-51 -123t-123 -51zM256 346q-64 0 -109 -45t-45 -109t45 -109t109 -45t109 45t45 109t-45 109t-109 45zM259 93l-99 99l99 99l14 -14l-85 -85l85 -85zM174 202h174v-20h-174v20z" />
    <glyph glyph-name="uniF103" unicode="&#xf103;" 
d="M256 18q-72 0 -123 51t-51 123t51 123t123 51t123 -51t51 -123t-51 -123t-123 -51zM256 346q-64 0 -109 -45t-45 -109t45 -109t109 -45t109 45t45 109t-45 109t-109 45zM253 93l-14 14l85 85l-85 85l14 14l99 -99zM164 202h174v-20h-174v20z" />
    <glyph glyph-name="uniF104" unicode="&#xf104;" 
d="M256 18q-72 0 -123 51t-51 123t51 123t123 51t123 -51t51 -123t-51 -123t-123 -51zM256 346q-64 0 -109 -45t-45 -109t45 -109t109 -45t109 45t45 109t-45 109t-109 45zM341 175l-85 85l-85 -85l-14 14l99 99l99 -99zM246 274h20v-174h-20v174z" />
    <glyph glyph-name="uniF105" unicode="&#xf105;" 
d="M430 79q-16 0 -28.5 4.5t-21 15t-14 20t-10 26.5t-6 27t-4.5 29q-4 26 -6 38.5t-8.5 32t-15 29t-24 17t-36.5 7.5t-36.5 -7.5t-24 -17t-15 -29t-8.5 -32t-6 -38.5q-3 -19 -4.5 -29t-6 -27t-10 -26.5t-14 -20t-21 -15t-28.5 -4.5v21q32 0 43.5 23.5t19.5 79.5q4 22 6 33.5
t7 31.5t12.5 31t18.5 23.5t28 18t39 5.5q26 0 45.5 -9.5t30 -21.5t18.5 -35t10.5 -37t6.5 -40q3 -23 5.5 -35.5t7 -27.5t10.5 -22.5t16 -12.5t24 -5v-21zM256 38q-22 0 -36.5 15t-14.5 37h20q0 -13 9 -22t22 -9t22 9t9 22h20q0 -22 -14.5 -37t-36.5 -15zM82 100h348v-21
h-348v21zM276 346q0 -16 -20 -16t-20 16q0 8 6 14t14 6q6 0 10.5 -2.5t7 -7.5t2.5 -10z" />
    <glyph glyph-name="uniF106" unicode="&#xf106;" 
d="M379 59h-246q-13 0 -22 9t-9 22v225q0 13 7.5 22t18.5 9h15v-21h-15q-5 0 -5 -10v-225q0 -11 10 -11h246q10 0 10 11v225q0 10 -5 10h-15v21h15q11 0 18.5 -9t7.5 -22v-225q0 -13 -9 -22t-22 -9zM174 305q-10 0 -10 10v41q0 10 10 10t10 -10v-41q0 -10 -10 -10zM338 305
q-10 0 -10 10v41q0 10 10 10t10 -10v-41q0 -10 -10 -10zM205 346h102v-21h-102v21zM123 284h266v-20h-266v20zM348 243h21v-20h-21v20zM307 243h21v-20h-21v20zM266 243h21v-20h-21v20zM225 243h21v-20h-21v20zM184 243h21v-20h-21v20zM348 202h21v-20h-21v20zM307 202h21
v-20h-21v20zM266 202h21v-20h-21v20zM225 202h21v-20h-21v20zM184 202h21v-20h-21v20zM143 202h21v-20h-21v20zM348 161h21v-20h-21v20zM307 161h21v-20h-21v20zM266 161h21v-20h-21v20zM225 161h21v-20h-21v20zM184 161h21v-20h-21v20zM143 161h21v-20h-21v20zM307 120h21
v-20h-21v20zM266 120h21v-20h-21v20zM225 120h21v-20h-21v20zM184 120h21v-20h-21v20zM143 120h21v-20h-21v20z" />
    <glyph glyph-name="uniF107" unicode="&#xf107;" 
d="M399 59h-286q-13 0 -22 9t-9 22v184q0 8 4 15.5t11 11.5t16 4h61q3 0 6 3l11 22q8 15 24 15h82q16 0 24 -15l11 -22q1 -3 6 -3h61q13 0 22 -9t9 -22v-184q0 -13 -9 -22t-22 -9zM113 284q-11 0 -11 -10v-184q0 -11 11 -11h286q11 0 11 11v184q0 10 -11 10h-61
q-16 0 -24 14l-11 23q-2 4 -6 4h-82q-3 0 -6 -3l-11 -22q-7 -16 -24 -16h-61zM256 100q-38 0 -65 27t-27 65t27 65t65 27t65 -27t27 -65t-27 -65t-65 -27zM256 264q-30 0 -51 -21t-21 -51t21 -51t51 -21t51 21t21 51t-21 51t-51 21zM348 263.5q0 2.5 1.5 5t4 4t4.5 1.5
q5 0 8 -3t3 -7.5t-3 -7.5t-8 -3q-2 0 -4.5 1.5t-4 4t-1.5 5zM123 325h41v-10h-41v10zM256 233q-17 0 -29 -12t-12 -29h-10q0 22 14.5 36.5t36.5 14.5v-10z" />
    <glyph glyph-name="uniF108" unicode="&#xf108;" 
d="M358 100h-225q-4 0 -8 4q-3 3 -1 9l19 49l-19 184h-63v20h72q9 0 10 -9l21 -195q0 -3 -1 -5l-15 -37h221zM156 151l-4 21l237 49v84h-246v20h256q11 0 11 -10v-103q0 -8 -9 -10zM369 38q-17 0 -29 12t-12 29t12 29t29 12q11 0 20.5 -5.5t15 -15t5.5 -20.5q0 -17 -12 -29
t-29 -12zM368.5 100q-8.5 0 -14.5 -6t-6 -14.5t6 -14.5t14.5 -6t14.5 6t6 14.5t-6 14.5t-14.5 6zM123 38q-17 0 -29 12t-12 29q0 11 5.5 20.5t15 15t20.5 5.5q17 0 29 -12t12 -29t-12 -29t-29 -12zM123 100q-9 0 -15 -6t-6 -14.5t6 -14.5t14.5 -6t14.5 6t6 14q0 6 -2.5 10.5
t-7.5 7.5t-10 3z" />
    <glyph glyph-name="uniF109" unicode="&#xf109;" 
d="M184 79h-20v103h-41v-103h-21v123h82v-123zM287 79h-21v164h-41v-164h-20v185h82v-185zM389 79h-20v226h-41v-226h-21v246h82v-246zM82 79h328v-20h-328v20z" />
    <glyph glyph-name="uniF10A" unicode="&#xf10a;" 
d="M256 18q-72 0 -123 51t-51 123t51 123t123 51t123 -51t51 -123t-51 -123t-123 -51zM256 346q-64 0 -109 -45t-45 -109t45 -109t109 -45t109 45t45 109t-45 109t-109 45zM236 116l-90 89l15 15l75 -75l115 116l15 -15z" />
    <glyph glyph-name="uniF10B" unicode="&#xf10b;" 
d="M256 116l-99 100l14 14l85 -85l85 85l14 -14z" />
    <glyph glyph-name="uniF10C" unicode="&#xf10c;" 
d="M280 93l-100 99l100 99l14 -14l-85 -85l85 -85z" />
    <glyph glyph-name="uniF10D" unicode="&#xf10d;" 
d="M232 93l-14 14l85 85l-85 85l14 14l100 -99z" />
    <glyph glyph-name="uniF10E" unicode="&#xf10e;" 
d="M341 154l-85 85l-85 -85l-14 14l99 100l99 -100z" />
    <glyph glyph-name="uniF10F" unicode="&#xf10f;" 
d="M256 18q-72 0 -123 51t-51 123t51 123t123 51t123 -51t51 -123t-51 -123t-123 -51zM256 346q-64 0 -109 -45t-45 -109t45 -109t109 -45t109 45t45 109t-45 109t-109 45zM310 103l-64 64v117h20v-108l59 -59z" />
    <glyph glyph-name="uniF110" unicode="&#xf110;" 
d="M382 332l14 -14l-266 -266l-14 14zM130 332l266 -266l-14 -14l-266 266z" />
    <glyph glyph-name="uniF111" unicode="&#xf111;" 
d="M256 18q-72 0 -123 51t-51 123t51 123t123 51t123 -51t51 -123t-51 -123t-123 -51zM256 346q-64 0 -109 -45t-45 -109t45 -109t109 -45t109 45t45 109t-45 109t-109 45zM331 281l14 -14l-164 -164l-14 14zM181 281l164 -164l-14 -14l-164 164z" />
    <glyph glyph-name="uniF112" unicode="&#xf112;" 
d="M154 18h-21l12 16q12 16 17 43q-80 37 -80 125q0 66 46.5 105t127.5 39t127.5 -39t46.5 -105q0 -33 -12 -60t-34.5 -45.5t-55 -28t-72.5 -9.5h-7q-35 -41 -95 -41zM256 325q-72 0 -113 -32.5t-41 -90.5q0 -80 74 -109l7 -3l-1 -9q-3 -27 -11 -43q40 5 65 36l3 4h17
q33 0 59 6.5t42 17.5t27.5 23.5t16.5 27.5t7 26t2 22q0 59 -41 91.5t-113 32.5z" />
    <glyph glyph-name="uniF113" unicode="&#xf113;" 
d="M399 59h-286q-13 0 -22 9t-9 22v204q0 13 9 22t22 9h286q13 0 22 -9t9 -22v-204q0 -13 -9 -22t-22 -9zM113 305q-11 0 -11 -11v-204q0 -11 11 -11h286q11 0 11 11v204q0 11 -11 11h-286zM92 284h328v-61h-328v61zM123 182h10v-21h-10v21zM143 182h11v-21h-11v21zM164 182
h10v-21h-10v21zM195 182h10v-21h-10v21zM215 182h10v-21h-10v21zM236 182h10v-21h-10v21zM266 182h10v-21h-10v21zM287 182h10v-21h-10v21zM307 182h10v-21h-10v21zM338 182h10v-21h-10v21zM358 182h11v-21h-11v21zM379 182h10v-21h-10v21z" />
    <glyph glyph-name="uniF114" unicode="&#xf114;" 
d="M326 200l102 -102l-15 -15l-102 102zM187 199l15 -14l-102 -102l-14 15zM256 142q-26 0 -43 18l-128 127l14 15l128 -128q13 -13 29.5 -13t29.5 13l128 128l14 -15l-129 -128q-17 -17 -43 -17zM399 59h-286q-13 0 -22 9t-9 22v204q0 13 9 22t22 9h286q13 0 22 -9t9 -22
v-204q0 -13 -9 -22t-22 -9zM113 305q-11 0 -11 -11v-204q0 -11 11 -11h286q11 0 11 11v204q0 11 -11 11h-286z" />
    <glyph glyph-name="uniF115" unicode="&#xf115;" 
d="M256 18q-72 0 -123 51t-51 123t51 123t123 51t123 -51t51 -123t-51 -123t-123 -51zM256 346q-64 0 -109 -45t-45 -109t45 -109t109 -45t109 45t45 109t-45 109t-109 45zM246 120h20v-20h-20v20zM262 141h-12l-4 82v61h20v-61z" />
    <glyph glyph-name="uniF116" unicode="&#xf116;" 
d="M392 343l15 -15l-154 -153l-14 14zM410 243h-21v82h-82v21h103v-103zM358 59h-204q-13 0 -22 9t-9 22v204q0 13 9 22t22 9h112v-20h-112q-11 0 -11 -11v-204q0 -11 11 -11h204q11 0 11 11v112h20v-112q0 -13 -9 -22t-22 -9z" />
    <glyph glyph-name="uniF117" unicode="&#xf117;" 
d="M256 79q-21 0 -41 4.5t-35.5 12t-29.5 16.5t-24 19.5t-18 19.5t-13.5 17.5t-8 13t-3.5 6.5q-2 5 0 9q3 5 7.5 13t20 26t34 32t48.5 25.5t63 11.5q21 0 41 -4.5t35.5 -12t29.5 -16.5t24 -19.5t18 -19.5t13.5 -17.5t8 -13t3.5 -6.5q2 -5 0 -9q-3 -5 -7.5 -13t-20 -26
t-34 -32t-48.5 -25.5t-63 -11.5zM103 192q7 -11 17 -23t28.5 -29.5t47 -28.5t60.5 -11q94 0 153 92q-7 11 -17 23t-28.5 29.5t-47 28.5t-60.5 11q-94 0 -153 -92zM256 100q-38 0 -65 27t-27 65t27 65t65 27t65 -27t27 -65t-27 -65t-65 -27zM256 264q-30 0 -51 -21t-21 -51
t21 -51t51 -21t51 21t21 51t-21 51t-51 21zM256 141q-22 0 -36.5 14.5t-14.5 36.5q0 10 10 10t10 -10q0 -13 9 -22t22 -9t22 9t9 22t-9 22t-22 9q-10 0 -10 10t10 10q22 0 36.5 -14.5t14.5 -36.5t-14.5 -36.5t-36.5 -14.5z" />
    <glyph glyph-name="uniF118" unicode="&#xf118;" 
d="M256 100q-38 0 -65 27t-27 65t27 65t65 27t65 -27t27 -65t-27 -65t-65 -27zM256 264q-30 0 -51 -21t-21 -51t21 -51t51 -21t51 21t21 51t-21 51t-51 21zM284 -3h-56l-15 48q-16 4 -30 12l-45 -23l-39 39l23 45q-7 14 -12 30l-49 16v56l48 15q4 16 12 30l-23 45l39 39
l45 -23q14 7 30 12l16 49h56l15 -48q16 -4 30 -12l45 23l39 -39l-23 -45q7 -14 12 -30l48 -15v-56l-48 -15q-5 -16 -12 -30l23 -45l-39 -39l-45 23q-14 -7 -30 -12zM243 18h26l15 44l5 1q16 4 35 14l5 3l41 -20l18 18l-20 41l3 5q9 17 14 35l1 5l44 15v26l-44 15l-1 5
q-4 16 -14 35l-3 5l20 41l-18 18l-41 -20l-5 3q-19 10 -35 14l-5 1l-15 44h-26l-15 -44l-5 -1q-16 -4 -35 -14l-5 -3l-41 20l-18 -18l20 -41l-3 -5q-9 -17 -14 -35l-1 -5l-44 -15v-26l44 -15l1 -5q4 -16 14 -35l3 -5l-20 -41l18 -18l41 20l5 -3q19 -10 35 -14l5 -1z" />
    <glyph glyph-name="uniF119" unicode="&#xf119;" 
d="M256 41l-6 6q-103 83 -135.5 122.5t-32.5 83.5q0 39 27 66t65 27q45 0 82 -42q37 42 82 42q38 0 65 -27t27 -66q0 -44 -32.5 -83.5t-135.5 -122.5zM174 325q-20 0 -36.5 -9.5t-26 -26t-9.5 -36.5q0 -38 30.5 -73.5t123.5 -111.5q93 76 123.5 111.5t30.5 73.5q0 30 -21 51
t-51 21q-17 0 -31.5 -7t-21.5 -13.5t-18 -18.5l-11 -13l-11 13q-11 12 -18 18.5t-21.5 13.5t-31.5 7z" />
    <glyph glyph-name="uniF11A" unicode="&#xf11a;" 
d="M399 59h-286q-13 0 -22 9t-9 22v204q0 13 9 22t22 9h286q13 0 22 -9t9 -22v-204q0 -13 -9 -22t-22 -9zM113 305q-11 0 -11 -11v-204q0 -11 11 -11h286q11 0 11 11v204q0 11 -11 11h-286zM307 202q-17 0 -29 12t-12 29t12 29t29 12t29 -12t12 -29t-12 -29t-29 -12z
M307.5 264q-8.5 0 -14.5 -6t-6 -14.5t6 -14.5t14.5 -6t14.5 6t6 14.5t-6 14.5t-14.5 6zM361 62l-166 157l-96 -88l-14 14l110 102l181 -171zM414 113l-56 45l-46 -38l-13 17l59 48l68 -55z" />
    <glyph glyph-name="uniF11B" unicode="&#xf11b;" 
d="M410 210q0 -15 -15 -26q6 -10 6 -18q0 -15 -15 -24q3 -8 3 -17q0 -19 -21 -28q1 -2 1 -7q0 -8 -5 -15t-13 -11.5t-18 -4.5h-97q-11 0 -35 11q-19 9 -27 9v147q48 37 62 71l10 56q1 5 5 7q11 6 25 6q31 0 31 -72q0 -25 -7 -51h69q18 0 29.5 -8.5t11.5 -24.5zM388 210
q0 4 -2.5 7t-7 4.5t-9.5 1.5h-93q-10 0 -10 10t10 10h3q8 31 8 51q0 18 -2.5 30.5t-4.5 17t-4 4.5q-8 0 -12 -1l-9 -52v-2q-14 -41 -71 -84v-107q9 -2 25 -10q18 -10 27 -10h97q15 0 15 11q0 4 -0.5 8t-0.5 6t1 4q1 1 10 5t11 10v2q0 7 -3.5 13t-1.5 10q0 3 4.5 5.5t8.5 5.5
t4 8.5t-2.5 9.5t-4.5 6.5t-1 5.5q0 2 3 4t5.5 3.5t4.5 5t2 7.5zM164 59h-62q-8 0 -14 6t-6 14v144q0 8 6 14t14 6h62q8 0 14 -6t6 -14v-144q0 -8 -6 -14t-14 -6zM102 223v-144h62v144h-62z" />
    <glyph glyph-name="uniF11C" unicode="&#xf11c;" 
d="M246 139l15 15q4 -9 4 -23q0 -30 -20 -51l-21 -20q-20 -21 -50 -21q-29 0 -50 21t-21 50q0 30 21 50l20 21q21 20 51 20q14 0 23 -4l-15 -15q-3 1 -8 1q-22 0 -37 -16l-21 -20q-15 -15 -15 -36.5t15.5 -37t37 -15.5t36.5 15l20 21q16 15 16 37q0 1 -0.5 4t-0.5 4z
M338 345q29 0 50 -21t21 -50q0 -30 -21 -50l-20 -21q-21 -20 -51 -20q-14 0 -23 4l15 15q3 -1 8 -1q22 0 37 16l21 20q15 15 15 36.5t-15.5 37t-37 15.5t-36.5 -15l-20 -21q-16 -15 -16 -37q0 -1 0.5 -4t0.5 -4l-15 -15q-4 9 -4 23q0 30 20 51l21 20q20 21 50 21zM205 131
q-4 0 -7 3q-8 7 0 14l102 102q7 8 14.5 0.5t-0.5 -14.5l-102 -102q-3 -3 -7 -3z" />
    <glyph glyph-name="uniF11D" unicode="&#xf11d;" 
d="M256 13l-8 9q-9 9 -35 43t-58 92.5t-32 95.5q0 56 39 95t94 39t94 -39t39 -95q0 -23 -13 -56.5t-28.5 -59.5t-38 -57t-30 -40t-15.5 -19zM256 366q-47 0 -80 -33t-33 -80q0 -29 25 -76.5t45.5 -76.5t42.5 -55q22 26 42.5 55t45.5 76.5t25 76.5q0 47 -33 80t-80 33z
M256 202q-22 0 -36.5 15t-14.5 36.5t14.5 36.5t36.5 15t36.5 -15t14.5 -36.5t-14.5 -36.5t-36.5 -15zM256 284q-13 0 -22 -9t-9 -22t9 -21.5t22 -8.5t22 8.5t9 21.5t-9 22t-22 9z" />
    <glyph glyph-name="uniF11E" unicode="&#xf11e;" 
d="M348 212h-20v41q0 30 -21 51t-51 21t-51 -21t-21 -51v-41h-20v41q0 39 27 66t65 27t65 -27t27 -66v-41zM338 38h-164q-13 0 -22 9t-9 22v123q0 13 9 22t22 9h164q13 0 22 -9t9 -22v-123q0 -13 -9 -22t-22 -9zM174 202q-10 0 -10 -10v-123q0 -10 10 -10h164q10 0 10 10
v123q0 10 -10 10h-164zM236 161.5q0 8.5 6 14.5t14 6t14 -6t6 -15q0 -5 -2.5 -10t-7 -7.5t-10.5 -2.5q-8 0 -14 6t-6 14.5zM261 161l10 -61h-30l10 61h10z" />
    <glyph glyph-name="uniF11F" unicode="&#xf11f;" 
d="M256 18q-72 0 -123 51t-51 123t51 123t123 51t123 -51t51 -123t-51 -123t-123 -51zM256 346q-64 0 -109 -45t-45 -109t45 -109t109 -45t109 45t45 109t-45 109t-109 45zM164 202h184v-20h-184v20z" />
    <glyph glyph-name="uniF120" unicode="&#xf120;" 
d="M102 325h308v-41h-308v41zM102 223h308v-41h-308v41zM102 120h308v-41h-308v41z" />
    <glyph glyph-name="uniF121" unicode="&#xf121;" 
d="M141 42q-26 0 -43 19q-17 18 -17 43.5t17 43.5l174 174q24 24 58 24t58 -24t24 -58t-24 -58l-131 -131l-14 15l130 130q17 17 17 42.5t-17 44.5q-18 17 -43.5 17t-43.5 -17l-174 -174q-13 -13 -13 -29q0 -18 13 -29q12 -12 29 -12t29 12l130 130q4 4 5.5 9.5t0 10.5
t-5.5 9q-6 6 -14 6t-15 -6l-87 -86l-14 14l87 87q12 13 29 13t29.5 -12.5t12.5 -29.5t-13 -29l-131 -130q-17 -19 -43 -19z" />
    <glyph glyph-name="uniF122" unicode="&#xf122;" 
d="M98 34l26 102l152 152l76 -76l-152 -152zM142 125l-15 -62l62 15l135 134l-48 48zM182 66q-4 19 -18.5 33.5t-33.5 18.5l5 20q25 -6 43 -24t24 -43zM300 251l14 -15l-133 -133l-14 14zM113 49l7 29q18 -4 22 -22zM358 219l-75 75l30 31l5 -1q28 -4 47.5 -23.5t23.5 -47.5
l1 -5zM311 294l47 -47l10 10q-4 17 -17 30t-30 17z" />
    <glyph glyph-name="uniF123" unicode="&#xf123;" 
d="M256 18q-72 0 -123 51t-51 123t51 123t123 51t123 -51t51 -123t-51 -123t-123 -51zM256 346q-64 0 -109 -45t-45 -109t45 -109t109 -45t109 45t45 109t-45 109t-109 45zM205 103v178l153 -89zM225 246v-107l92 54z" />
    <glyph glyph-name="uniF124" unicode="&#xf124;" 
d="M256 18q-72 0 -123 51t-51 123t51 123t123 51t123 -51t51 -123t-51 -123t-123 -51zM256 346q-64 0 -109 -45t-45 -109t45 -109t109 -45t109 45t45 109t-45 109t-109 45zM164 202h184v-20h-184v20zM246 284h20v-184h-20v184z" />
    <glyph glyph-name="uniF125" unicode="&#xf125;" 
d="M338 59h-123q-10 0 -10 10q0 16 -19 39q-11 13 -20 28q-31 49 -41 81q-5 17 3 27q6 9 22 9q15 0 35 -23v105q0 13 9 22t22 9t22 -9t9 -22v-43q6 2 10 2q17 0 26 -14q5 4 14 4q23 0 30 -22q6 2 11 2q13 0 22 -9t9 -22v-31q0 -27 -10.5 -68t-10.5 -65q0 -10 -10 -10z
M224 79h104q0 17 10 60q10 41 10 63v31q0 10 -10 10t-10 -10v-10q0 -11 -10.5 -11t-10.5 11v30q0 11 -10 11t-10 -11v-20q0 -10 -10.5 -10t-10.5 10v31q0 10 -10 10t-10 -10v-21q0 -10 -10.5 -10t-10.5 10v92q0 11 -10 11t-10 -11v-153q0 -10 -10.5 -10t-10.5 10v8
q-6 16 -18 29.5t-18 13.5q-4 0 -5 -1q-1 -2 0 -9q7 -26 39 -77q3 -5 19 -26q21 -23 23 -41z" />
    <glyph glyph-name="uniF126" unicode="&#xf126;" 
d="M256 18q-72 0 -123 51t-51 123t51 123t123 51t123 -51t51 -123t-51 -123t-123 -51zM256 346q-64 0 -109 -45t-45 -109t45 -109t109 -45t109 45t45 109t-45 109t-109 45zM203 247q5 14 12 20q8 8 19 12t26 4q11 0 21 -3t17 -9q8 -7 11 -16q4 -8 4 -20q0 -15 -6 -26
q-2 -4 -16 -20l-13 -13q-7 -7 -8 -10q-3 -4 -3 -11q-1 -4 -1 -15h-16q0 11 1 17q1 5 5 16q3 6 9 12l3 3t4 3.5t4 3.5l4 4q7 8 12 16t5 18q0 8 -3 14t-8 12q-4 3 -13 7q-7 3 -14 3q-12 0 -18 -4q-8 -4 -14 -11q-5 -7 -8 -15q-4 -12 -4 -16h-16q0 13 4 24zM266 120v-20h-20v20
h20z" />
    <glyph glyph-name="uniF127" unicode="&#xf127;" 
d="M256 59q-55 0 -94 39t-39 94t39 94t94 39q27 0 51.5 -11t43 -31t27.5 -47l-20 -7q-11 35 -38.5 55.5t-63.5 20.5q-47 0 -80 -33t-33 -80t33 -80t80 -33q33 0 61 18t41 48l19 -8q-11 -24 -29.5 -41.5t-42 -27t-49.5 -9.5zM389 223h-82v20h62v62h20v-82z" />
    <glyph glyph-name="uniF128" unicode="&#xf128;" 
d="M256 59q-55 0 -94 39t-39 94q0 49 34 88l15 -13q-29 -32 -29 -75q0 -47 33 -80t80 -33q25 0 47 11l8 -19q-26 -12 -55 -12zM355 103l-15 13q29 32 29 75q0 47 -33 80t-80 33q-25 0 -47 -11l-8 19q26 12 55 12q55 0 94 -39t39 -94q0 -49 -34 -88zM184 202h-20v62h-62v20
h82v-82zM410 100h-82v82h20v-62h62v-20z" />
    <glyph glyph-name="uniF129" unicode="&#xf129;" 
d="M389 90h-20v184q0 10 -11 10h-174v21h174q13 0 22 -9t9 -22v-184zM379 74l-70 80l17 14l53 -63l53 63l17 -14zM328 79h-174q-13 0 -22 9t-9 22v184h20v-184q0 -10 11 -10h174v-21zM186 216l-53 63l-53 -63l-17 14l70 80l70 -80z" />
    <glyph glyph-name="uniF12A" unicode="&#xf12a;" 
d="M266 243h51l-6 -51h-45v-154h-61v154h-41v51h41v31q0 31 17.5 51.5t53.5 20.5h41v-52h-26q-15 0 -20 -4.5t-5 -15.5v-31z" />
    <glyph glyph-name="uniF12B" unicode="&#xf12b;" 
d="M256 346q64 0 108.5 -45t44.5 -108q0 -50 -29 -90t-76 -55q-5 -2 -7.5 0.5t-2.5 6.5v42q0 18 -10 28q31 4 50 20t19 56q0 26 -15 41q8 17 -1 41q-12 4 -42 -15q-21 5 -39 5t-39 -5q-13 8 -23.5 12t-14.5 4l-4 -1q-9 -24 -1 -41q-15 -17 -15 -41q0 -39 19 -55.5t50 -20.5
q-9 -7 -10 -20q-30 -14 -45 12q-8 15 -23 16q-2 0 -4 -0.5t-4 -2.5t6 -7q11 -5 18 -22q0 -1 1 -3t5 -7t9.5 -7.5t15 -4.5t21.5 1v-26q0 -9 -10 -7q-47 15 -76.5 55t-29.5 90q0 64 45 109t109 45z" />
    <glyph glyph-name="uniF12C" unicode="&#xf12c;" 
d="M184 212h135q3 -14 3 -23q0 -62 -38 -101t-100 -39q-59 0 -101 42t-42 101t42 101t101 42q55 0 97 -38l-39 -37q-25 22 -58 22q-36 0 -62.5 -26.5t-26.5 -63.5q0 -24 12 -45t32.5 -33t44.5 -12q38 0 58 20t23 41h-81v49zM492 212v-40h-41v-41h-41v41h-41v40h41v41h41v-41
h41z" />
    <glyph glyph-name="uniF12D" unicode="&#xf12d;" 
d="M358 212v-112q0 -10 -10 -10h-184q-10 0 -10 10v112h23q-3 -9 -3 -20q0 -34 24 -58t58 -24t58 24t24 58q0 11 -3 20h23zM358 284v-31q0 -10 -10 -10h-31q-10 0 -10 10v31q0 10 10 10h31q10 0 10 -10zM256 243q22 0 36.5 -14.5t14.5 -36.5t-14.5 -36.5t-36.5 -14.5
t-36.5 14.5t-14.5 36.5t14.5 36.5t36.5 14.5zM358 59h-204q-13 0 -22 9t-9 22v204q0 13 9 22t22 9h204q13 0 22 -9t9 -22v-204q0 -13 -9 -22t-22 -9v0z" />
    <glyph glyph-name="uniF12E" unicode="&#xf12e;" 
d="M370 325q8 0 13.5 -5.5t5.5 -13.5v-228q0 -8 -5.5 -13.5t-13.5 -5.5h-228q-7 0 -13 6t-6 13v228q0 8 5.5 13.5t13.5 5.5h228zM205 100v123h-41v-123h41zM184 239q10 0 17.5 7.5t7.5 17.5t-7.5 17t-17.5 7t-17 -7t-7 -17t7 -17.5t17 -7.5zM348 100v72q0 26 -10 40.5
t-36 14.5q-24 0 -34 -19h-2v15h-41v-123h41v61q0 33 20.5 33t20.5 -33v-61h41z" />
    <glyph glyph-name="uniF12F" unicode="&#xf12f;" 
d="M256 182q-34 0 -58 24t-24 57.5t24 58t58 24.5t58 -24.5t24 -58t-24 -57.5t-58 -24zM256 307q-18 0 -30.5 -13t-12.5 -30.5t12.5 -30t30.5 -12.5t30.5 12.5t12.5 30t-12.5 30.5t-30.5 13zM344 174q5 -7 4 -15.5t-8 -13.5l-3 -2t-8 -4.5t-11.5 -5.5t-16 -6t-19.5 -5
l54 -55q6 -6 6 -14t-6 -14.5t-14.5 -6.5t-14.5 6l-51 53l-51 -53q-6 -6 -14.5 -6t-14.5 6t-6 14.5t6 14.5l54 55q-16 3 -30.5 8.5t-20 9t-7.5 5.5q-7 5 -8 13.5t4 15.5t13.5 8t15.5 -4q22 -17 59 -17q16 0 31 4t22 9l6 4q17 11 29 -4z" />
    <glyph glyph-name="uniF130" unicode="&#xf130;" 
d="M256 346q64 0 109 -45t45 -109t-45 -109t-109 -45q-25 0 -45 8q17 27 19 40l10 36q9 -17 34 -17q35 0 57.5 27.5t22.5 67.5q0 38 -27 63.5t-67 25.5q-47 0 -74 -27t-27 -66q0 -11 3.5 -23t10.5 -22t16 -14q4 -2 6 2q0 1 0.5 4t1.5 7t2 6q0 3 -1 4q-12 13 -12 35
q0 27 19 47t51 20q28 0 46.5 -17.5t18.5 -45.5q0 -31 -14 -50.5t-35 -19.5q-11 0 -18 8t-4 19q1 7 4.5 18t5.5 19t2 14q0 22 -19 22q-8 0 -14.5 -4.5t-10 -13t-3.5 -19.5q0 -6 1 -11.5t2 -8.5l1 -3q-15 -64 -18 -76q-4 -15 -1 -44q-43 17 -70.5 56t-27.5 87q0 64 45 109
t109 45z" />
    <glyph glyph-name="uniF131" unicode="&#xf131;" 
d="M389 168q10 -17 10 -38q0 -33 -23 -57q-22 -23 -57 -23q-22 0 -39 10q-15 -2 -24 -2q-29 0 -52 10q-23 9 -43 29q-18 17 -29 43q-10 23 -10 52q0 9 2 24q-10 17 -10 38q0 33 23 57q22 23 57 23q21 0 37 -9q17 2 26 2q29 0 52 -10q23 -9 43 -29q18 -17 29 -43
q10 -23 10 -52q0 -8 -2 -25zM257 110q33 0 50 14.5t17 37.5q0 37 -43 47l-32 8q-26 4 -26 17q0 6 3.5 10t9.5 6.5t15 2.5q15 0 24 -6t14 -12t12 -6q17 0 17 14q0 10 -9.5 19t-24.5 14t-30 5q-28 0 -47.5 -12t-19.5 -38q0 -36 41 -45l43 -10q17 -4 17 -18q0 -9 -8.5 -15
t-22.5 -6q-13 0 -21.5 4.5t-11.5 10t-8.5 10t-11.5 4.5q-7 0 -12 -4t-5 -11t4.5 -14t12.5 -13t22 -10t31 -4z" />
    <glyph glyph-name="uniF132" unicode="&#xf132;" 
d="M410 202q25 0 43 -18t18 -43.5t-18 -43.5t-43 -18h-180q-5 0 -5 5l-4 57l4 93q0 8 3 12q30 38 79 38q37 0 65.5 -23t35.5 -59h2zM194 243h4q5 0 5 -5l8 -92v-10l-8 -52q-2 -5 -6 -5h-2q-7 0 -7 5l-8 52v10l8 92q0 5 6 5zM153 233h4q5 0 5 -5l8 -82v-10l-8 -52
q-2 -5 -6 -5h-2q-7 0 -7 5l-8 52v10l8 82q0 5 6 5zM112.5 202q4.5 0 6.5 -5l8 -51v-10l-8 -52q-2 -5 -6 -5q-7 0 -7 5l-8 52v10l8 51q2 5 6.5 5zM72 212q5 0 5 -5l9 -61v-10l-8 -52q-2 -5 -6 -5t-7 5l-9 52v10l10 61q1 5 6 5zM33.5 182q4.5 0 6.5 -5l6 -31v-10l-6 -41
q-2 -5 -6.5 -5t-5.5 5l-6 41q-2 5 0 10l6 31q1 5 5.5 5z" />
    <glyph glyph-name="uniF133" unicode="&#xf133;" 
d="M380 315q11 5 20.5 -3.5t7.5 -21.5l-56 -237q-1 -6 -6.5 -7.5t-9.5 1.5l-80 58l-42 -39q-4 -4 -9.5 -2.5t-6.5 6.5l-29 90l-72 23q-7 2 -7.5 9.5t6.5 9.5zM214 143l170 151l-200 -131l21 -73z" />
    <glyph glyph-name="uniF134" unicode="&#xf134;" 
d="M316 116l14 -40q-4 -5 -19 -10.5t-30 -5.5q-30 -1 -50 12t-28 30t-8 35v93h-29v37q51 18 56 77q0 2 2 2h42v-74h57v-43h-58v-89q0 -30 28 -29q11 0 23 5z" />
    <glyph glyph-name="uniF135" unicode="&#xf135;" 
d="M401 276q-11 -18 -30 -33v-8q0 -31 -12 -62t-33.5 -56.5t-56 -41.5t-74.5 -16q-55 0 -93 30q4 -1 15 -1q42 0 77 26q-14 0 -26 5.5t-20.5 15.5t-12.5 22q3 -1 11 -1q7 0 17 2q-22 4 -36 21t-14 40v1q13 -9 27 -9q-27 18 -27 52q0 17 8 28q51 -61 128 -64q-2 10 -2 14
q0 26 18.5 44.5t43.5 18.5q27 0 45 -20q21 5 39 16q-7 -21 -27 -34q20 3 35 10z" />
    <glyph glyph-name="uniF136" unicode="&#xf136;" 
d="M389 247q-1 -40 -57 -113q-59 -76 -99 -76q-25 0 -42 46q-2 11 -6.5 26.5t-8.5 30.5t-7 27q-12 46 -28 46q-3 0 -22 -13l-14 17q15 12 41 37q27 24 42 26q34 3 41 -46q7 -43 12 -65q9 -43 21 -43q10 0 27 29q18 26 19 43q3 24 -19 24q-9 0 -21 -5q21 68 80 67
q44 -2 41 -58z" />
    <glyph glyph-name="uniF137" unicode="&#xf137;" 
d="M257 80q-5 0 -13.5 0.5t-30.5 10.5t-40 29q-19 20 -39.5 53.5t-30.5 56.5l-11 23q-2 6 0 9l10 3h49q5 -1 8 -3l4 -7q8 -20 18 -37q15 -26 23.5 -34t13.5 -5q5 2 6.5 14.5t1.5 23.5l-1 11q0 15 -4 24q-6 8 -15 8q-5 0 3 6l4 3q8 4 42 4q13 0 24 -2q5 -1 7.5 -3.5t3.5 -8
t1 -10t-0.5 -15.5t-0.5 -19q0 -2 -0.5 -7.5t0 -8.5t1 -7t2 -7t3.5 -4q2 -2 5.5 -0.5t11 11t18.5 27.5l18 40q1 3 4 5l6 1h52q15 2 17 -5q3 -13 -27 -53q-4 -6 -11 -14.5t-8.5 -12t-5.5 -7.5t-3 -7t0.5 -5t3.5 -6t6 -6.5t9 -8.5q8 -7 14 -13.5t9.5 -11t6 -7.5t3.5 -5l1 -2
q9 -18 -12 -21l-45 -1q-10 -2 -22 8q-6 4 -15.5 15t-17 17.5t-12.5 5t-8.5 -9.5t-3.5 -15v-6q0 -6 -3 -10l-9 -4h-21z" />
    <glyph glyph-name="uniF138" unicode="&#xf138;" 
d="M407 258q3 -25 3 -50v-22l-3 -49q-4 -22 -13 -31q-9 -10 -30 -13l-108 -3q-80 1 -104 2q-25 3 -34 13q-3 3 -5 7t-3.5 8t-2.5 7.5t-1 5.5l-1 3q-3 25 -3 50v22l3 50q4 21 13 30q9 10 30 14l108 3q65 0 108 -3q21 -4 30 -14q4 -4 7 -11.5t5 -13.5zM224 157l83 43l-83 43
v-86z" />
    <glyph glyph-name="uniF139" unicode="&#xf139;" 
d="M235.5 79q-55.5 0 -94.5 39t-39 94.5t39 94.5t94.5 39t94.5 -39t39 -94.5t-39 -94.5t-94.5 -39zM235.5 325q-46.5 0 -79.5 -33t-33 -79.5t33 -79.5t79.5 -33t79.5 33t33 79.5t-33 79.5t-79.5 33zM335 128l92 -92l-15 -15l-92 92z" />
    <glyph glyph-name="uniF13A" unicode="&#xf13a;" 
d="M310 308l-54 54l-54 -54l-15 14l69 69l69 -69zM246 376h20v-215h-20v215zM358 38h-204q-13 0 -22 9t-9 22v184q0 13 9 22t22 9h71v-20h-71q-11 0 -11 -11v-184q0 -10 11 -10h204q11 0 11 10v184q0 11 -11 11h-71v20h71q13 0 22 -9t9 -22v-184q0 -13 -9 -22t-22 -9z" />
    <glyph glyph-name="uniF13B" unicode="&#xf13b;" 
d="M153.5 141q-14.5 0 -26 6.5t-18.5 18.5t-7 26q0 22 15 36.5t36.5 14.5t36.5 -14.5t15 -36.5q0 -14 -7 -26t-18.5 -18.5t-26 -6.5zM154 223q-13 0 -22 -9t-9 -22t9 -22t22 -9t21.5 9t8.5 22t-8.5 22t-21.5 9zM358.5 243q-21.5 0 -36.5 15t-15 36.5t15 36.5t36.5 15
t36.5 -15t15 -36.5t-15 -36.5t-36.5 -15zM358 325q-13 0 -21.5 -9t-8.5 -22t8.5 -21.5t21.5 -8.5q7 0 12.5 2t9.5 6.5t6.5 10t2.5 11.5q0 13 -9 22t-22 9zM358.5 38q-21.5 0 -36.5 15t-15 36.5t15 36.5t36.5 15t36.5 -15t15 -36.5t-15 -36.5t-36.5 -15zM358 120
q-13 0 -21.5 -8.5t-8.5 -21.5q0 -7 2 -12.5t6.5 -9.5t10 -6.5t11.5 -2.5q13 0 22 9t9 22q0 8 -4 15t-11 11t-16 4zM195 183l132 -66l-10 -18l-132 66zM317 285l10 -18l-132 -66l-10 18z" />
    <glyph glyph-name="uniF13C" unicode="&#xf13c;" 
d="M256 264q-10 0 -10 10v82q0 10 10 10t10 -10v-82q0 -10 -10 -10zM256 18q-10 0 -10 10v82q0 10 10 10t10 -10v-82q0 -10 -10 -10zM297 253q-3 0 -5 1q-8 6 -3 14l41 70q5 8 13 4q8 -6 3 -14l-41 -70q-4 -5 -8 -5zM174 40q-3 0 -5 1q-8 6 -3 14l41 70q6 8 13 4q8 -6 3 -14
l-41 -70q-4 -5 -8 -5zM215 253q-5 0 -8 6l-41 70q-5 7 3 14q7 5 13 -4l41 -70q6 -7 -3 -14q-2 -2 -5 -2zM338 40q-5 0 -8 6l-41 70q-6 7 3 14q7 5 13 -4l41 -70q5 -7 -3 -14q-4 -2 -5 -2zM174 182h-82q-10 0 -10 10t10 10h82q10 0 10 -10t-10 -10zM420 182h-82q-10 0 -10 10
t10 10h82q10 0 10 -10t-10 -10zM185 224q-3 0 -5 1l-70 41q-8 5 -4 13q6 8 14 3l70 -41q8 -6 4 -13q-3 -4 -9 -4zM398 101q-3 0 -5 1l-70 41q-8 6 -4 13q6 8 14 3l70 -41q8 -5 4 -13q-3 -4 -9 -4zM114 101q-5 0 -9 5q-5 7 4 13l70 41q7 6 14 -3q5 -7 -4 -13l-70 -41
q-1 -2 -5 -2zM327 224q-5 0 -9 5q-5 7 4 13l70 41q7 5 14 -3q5 -7 -4 -13l-70 -41q-2 -2 -5 -2z" />
    <glyph glyph-name="uniF13D" unicode="&#xf13d;" 
d="M236 345.5q0 8.5 6 14.5t14 6t14 -6t6 -14q0 -6 -2.5 -10.5t-7 -7.5t-10.5 -3q-8 0 -14 6t-6 14.5zM236 38.5q0 8.5 6 14.5t14 6t14 -6t6 -14.5t-6 -14.5t-14 -6t-14 6t-6 14.5zM312 325.5q0 8.5 6 14.5t14.5 6t14.5 -6t6 -14.5t-6 -14.5t-14.5 -6t-14.5 6t-6 14.5z
M159 58.5q0 8.5 6 14.5t14.5 6t14.5 -6t6 -14.5t-6 -14.5t-14.5 -6t-14.5 6t-6 14.5zM159 325.5q0 8.5 6 14.5t14.5 6t14.5 -6t6 -14.5t-6 -14.5t-14.5 -6t-14.5 6t-6 14.5zM312 58.5q0 8.5 6 14.5t14.5 6t14.5 -6t6 -14.5t-6 -14.5t-14.5 -6t-14.5 6t-6 14.5zM82 192
q0 6 2.5 10.5t7.5 7t10.5 2.5t10 -2.5t7.5 -7t3 -10.5q0 -8 -6 -14t-14.5 -6t-14.5 6t-6 14zM389 192q0 8 6 14t14.5 6t14.5 -6t6 -14t-6 -14t-14.5 -6t-14.5 6t-6 14zM102 268.5q0 8.5 6 14.5t14.5 6t14.5 -6t6 -14.5t-6 -14.5t-14.5 -6t-14.5 6t-6 14.5zM369 115.5
q0 8.5 6 14.5t14.5 6t14.5 -6t6 -14.5t-6 -14.5t-14.5 -6t-14.5 6t-6 14.5zM102 115.5q0 8.5 6 14.5t14.5 6t14.5 -6t6 -14.5t-6 -14.5t-14.5 -6t-14.5 6t-6 14.5zM369 268.5q0 8.5 6 14.5t14 6q6 0 10.5 -2.5t7.5 -7.5t3 -10q0 -9 -6 -15t-14.5 -6t-14.5 6t-6 14.5z" />
    <glyph glyph-name="uniF13E" unicode="&#xf13e;" 
d="M429 203q2 -30 -11 -39q-11 -6 -19 2t-10 20q-1 6 -1.5 21t-2.5 23q-5 27 -20 49q-30 44 -85.5 54.5t-100.5 -16.5q-44 -25 -64.5 -72t-9.5 -96q11 -46 46 -78.5t82 -41.5q45 -8 86 12t70 59q-32 -47 -79.5 -68t-100.5 -6q-46 12 -79 47t-43 81q-11 47 5 93t52 77
q39 32 90.5 39.5t97.5 -12.5q42 -20 68.5 -60.5t28.5 -87.5z" />
    <glyph glyph-name="uniF13F" unicode="&#xf13f;" 
d="M156 32q-2 0 -6 2q-6 5 -5 12l40 122l-104 77q-6 5 -4 12t10 7h130l39 124q2 7 10 7q7 0 10 -7l40 -124h130q8 0 11 -6q3 -8 -4 -12l-105 -76l40 -122q2 -9 -4 -12q-7 -3 -12 0l-106 74l-104 -76q-4 -2 -6 -2zM266 134q2 0 6 -2l85 -63l-32 100q-2 9 4 12l85 62h-106
q-6 0 -10 7l-32 101l-33 -101q-1 -7 -10 -7h-105l85 -62q6 -5 4 -12l-32 -100l85 63q4 2 6 2z" />
    <glyph glyph-name="uniF140" unicode="&#xf140;" 
d="M225.5 37q-14.5 0 -23.5 10l-91 91q-10 9 -10 23t10 23l121 122q19 18 47 18h77q14 0 23.5 -9.5t9.5 -23.5v-77q0 -26 -18 -47l-122 -120q-9 -10 -23.5 -10zM279 305q-20 0 -31 -14l-122 -122q-9 -8 0 -17l91 -91q9 -7 17 0l122 122q14 13 14 31v77q0 13 -13 13h-78v1z
M307 202q-17 0 -29 12t-12 29t12 29t29 12t29 -12t12 -29t-12 -29t-29 -12zM307.5 264q-8.5 0 -14.5 -6t-6 -14.5t6 -14.5t14.5 -6t14.5 6t6 14.5t-6 14.5t-14.5 6z" />
    <glyph glyph-name="uniF141" unicode="&#xf141;" 
d="M205 264h20v-164h-20v164zM246 264h20v-164h-20v164zM287 264h20v-164h-20v164zM123 325h266v-20h-266v20zM307 325h-20v10q0 11 -11 11h-40q-11 0 -11 -11v-10h-20v10q0 13 8.5 22t22.5 9h40q14 0 22.5 -9t8.5 -22v-10zM317 38h-122q-13 0 -22.5 9t-10.5 21l-19 246
l21 2l18 -246q0 -2 1 -4t3 -3.5t4 -2.5t5 -1h122q11 0 13 11l18 246l21 -2l-19 -246q-1 -12 -10.5 -21t-22.5 -9z" />
    <glyph glyph-name="uniF142" unicode="&#xf142;" 
d="M293 147q-15 -11 -21 -18t-6 -19v-31q31 -3 39 -20h23q5 0 10 -3t7.5 -7.5t2.5 -10.5h-184q0 9 6 15t14 6h23q8 17 39 20v31q0 11 -6 18t-21 19q-16 13 -25 22t-23 31t-21 55.5t-7 79.5v11h226v-11q0 -46 -7 -80t-20.5 -55t-23 -31t-25.5 -22zM256 142q6 7 26 21
q14 12 22 20.5t20 26.5t18 47t7 68h-184q0 -32 5 -57.5t11 -41t16.5 -29.5t17 -19.5t17.5 -14.5q17 -12 24 -21zM193 172q-1 0 -7 1.5t-16 6t-21.5 11t-23.5 18t-21.5 25.5t-15.5 35t-6 46v10h72v-20h-52q2 -20 7.5 -36.5t14 -27.5t18.5 -20t19 -14.5t17.5 -9t13 -4.5
t5.5 -1zM319 172l-4 20q4 1 6.5 1.5t13 5t18 9t18.5 14t18.5 20.5t13 27.5t7.5 35.5h-52v20h72v-10q0 -34 -11.5 -61t-27 -41.5t-33 -24.5t-27 -13t-12.5 -3z" />
    <glyph glyph-name="uniF143" unicode="&#xf143;" 
d="M256 59q-39 0 -72 21t-49 57l19 8q9 -20 24.5 -35t35.5 -23t42 -8q47 0 80 33t33 80t-33 80t-80 33q-35 0 -63 -20.5t-40 -54.5l-20 7q15 40 48.5 64t74.5 24q55 0 94 -39t39 -94t-39 -94t-94 -39zM205 223h-82v82h20v-62h62v-20z" />
    <glyph glyph-name="uniF144" unicode="&#xf144;" 
d="M184 212h-20v41q0 39 27 66t65 27q35 0 61 -23.5t30 -57.5l-20 -2q-3 26 -23.5 44t-47.5 18q-30 0 -51 -21t-21 -51v-41zM338 38h-164q-13 0 -22 9t-9 22v123q0 13 9 22t22 9h164q13 0 22 -9t9 -22v-123q0 -13 -9 -22t-22 -9zM174 202q-10 0 -10 -10v-123q0 -10 10 -10
h164q10 0 10 10v123q0 10 -10 10h-164zM236 161.5q0 8.5 6 14.5t14 6t14 -6t6 -15q0 -5 -2.5 -10t-7 -7.5t-10.5 -2.5q-8 0 -14 6t-6 14.5zM261 161l10 -61h-30l10 61h10z" />
    <glyph glyph-name="uniF145" unicode="&#xf145;" 
d="M257 18q-72 0 -123 51t-51 123t51 123t123 51q47 0 87.5 -23t63.5 -63.5t23 -87.5q0 -72 -51 -123t-123 -51zM257 346q-64 0 -109 -45t-45 -109t45 -109t109 -45t109 45t45 109q0 42 -21 77.5t-56.5 56t-76.5 20.5zM157 66l-19 8q5 12 39 28q1 0 4 2q11 5 17 8t12 8.5
t6 10.5v15q-16 13 -18 33q-14 13 -14 26q0 7 5 18q-4 16 -4 36q0 30 19.5 48t52.5 18q25 0 36 -12q10 -2 18 -9.5t13 -19.5t5 -25q0 -21 -5 -39q4 -6 4 -15q0 -17 -14 -26q-2 -20 -17 -32v-16q0 -10 35 -23q39 -15 47 -32l-20 -7q-3 9 -34 20q-16 5 -24 8.5t-16.5 12.5
t-8.5 20v26l6 3q12 8 12 25v7l6 3q6 0 6 11q0 3 -3 6l-4 5l2 5q5 16 5 37q0 13 -6.5 23t-13.5 10h-6l-4 5q0 9 -19 9q-24 0 -37.5 -12.5t-13.5 -33.5l5 -36l1 -5l-4 -6q-3 0 -3 -7t9 -13l4 -3v-5q0 -7 3.5 -13t6.5 -9l3 -3l6 -3v-26q0 -12 -9 -21.5t-18 -14.5t-25 -12
q-26 -9 -28 -16z" />
  </font>
</defs>
</svg>
