<svg xmlns="http://www.w3.org/2000/svg" xmlns:xlink="http://www.w3.org/1999/xlink" version="1.1" x="0px" y="0px" viewBox="0 0 256 256" enable-background="new 0 0 256 256" xml:space="preserve"><g><path fill="#000000" d="M60.2,204.2h65.5c1.3,0,2.3-1,2.3-2.3s-1-2.3-2.3-2.3H60.2c-1.3,0-2.3-1.1-2.3-2.3V61.2   c0-1.3,1-2.3,2.3-2.3h98.3c1.3,0,2.3,1.1,2.3,2.3v23.4c0,1.3,1,2.3,2.3,2.3c1.3,0,2.3-1,2.3-2.3V61.2c0-3.9-3.1-7-7-7H60.2   c-3.9,0-7,3.2-7,7v135.9C53.1,201,56.3,204.2,60.2,204.2z"></path><path fill="#000000" d="M139.5,103.4v93.8c0,3.9,3.1,7,7,7H198c3.9,0,7-3.2,7-7v-93.8c0-3.9-3.1-7-7-7h-51.5   C142.6,96.4,139.5,99.5,139.5,103.4z M200.3,103.4v93.8c0,1.3-1,2.3-2.3,2.3h-51.5c-1.3,0-2.3-1.1-2.3-2.3v-93.8   c0-1.3,1-2.3,2.3-2.3H198C199.3,101,200.3,102.1,200.3,103.4z"></path><ellipse fill="#000000" cx="111.4" cy="185.4" rx="4.7" ry="4.7"></ellipse><ellipse fill="#000000" cx="172.2" cy="185.4" rx="4.7" ry="4.7"></ellipse><g><path fill="#000000" d="M137.9,89.3H79.4c-1.4,2.1-0.5,4,1.3,4h58.5C140.6,91.1,139.7,89.3,137.9,89.3z"></path><path fill="#000000" d="M130.3,102.7H79.4c-1.4,2.1-0.5,4,1.3,4h50.9C133,104.6,132,102.7,130.3,102.7z"></path><path fill="#000000" d="M122.2,116.2H79.4c-1.4,2.1-0.5,4,1.3,4h41.5c1.2,0,2-0.8,2-2C124.3,117,123.4,116.2,122.2,116.2z"></path><path fill="#000000" d="M112.2,129.7H79.4c-1.4,2.1-0.5,4,1.3,4h31.5c1.2,0,2-0.8,2-2C114.3,130.6,113.4,129.7,112.2,129.7z"></path><path fill="#000000" d="M103.1,143.1H79.4c-1.4,2.1-0.5,4,1.3,4h22.5c1.2,0,2-0.8,2-2C105.2,144.1,104.3,143.1,103.1,143.1z"></path></g><g><path fill="#000000" d="M190.7,123.1h-34.9c-1.4,2.1-0.5,4,1.3,4H192C193.5,124.9,192.5,123.1,190.7,123.1z"></path><path fill="#000000" d="M183.7,135.2h-27.8c-1.4,2.1-0.5,4,1.3,4h26.5c1.2,0,2-0.8,2-2C185.8,136,184.8,135.2,183.7,135.2z"></path><path fill="#000000" d="M173.7,147.3h-17.8c-1.4,2.1-0.5,4,1.3,4h16.5c1.2,0,2-0.8,2-2C175.8,148.3,174.9,147.3,173.7,147.3z"></path><path fill="#000000" d="M168.6,159.5h-12.8c-1.4,2.1-0.5,4,1.3,4h11.5c1.2,0,2-0.8,2-2C170.7,160.4,169.8,159.5,168.6,159.5z"></path></g></g></svg>